<svg width="204" height="214" viewBox="0 0 204 214" fill="none" xmlns="http://www.w3.org/2000/svg">
<path d="M0 121.365C9.04424 130.542 18.6627 139.114 28.6545 147.255C24.0893 159.309 20.0409 171.563 16.7677 184.048C29.1713 187.471 41.8045 190.06 54.4951 192.132C56.5624 204.846 59.1465 217.504 62.5632 229.931C75.0241 226.68 87.2554 222.595 99.2857 218.022C107.411 228.004 115.996 237.669 125.126 246.731C134.285 237.669 142.842 228.032 150.967 218.022C162.997 222.595 175.229 226.652 187.69 229.931C191.106 217.504 193.69 204.846 195.758 192.132C208.448 190.06 221.081 187.471 233.485 184.048C230.241 171.563 226.163 159.309 221.598 147.255C231.561 139.114 241.209 130.513 250.253 121.365C241.209 112.189 231.59 103.616 221.598 95.4753C226.163 83.4221 230.212 71.1674 233.485 58.6827C221.081 55.2594 208.448 52.6704 195.758 50.5992C193.69 37.8843 191.106 25.227 187.69 12.7998C175.229 16.0504 162.997 20.1353 150.967 24.7092C142.842 14.7271 134.257 5.06152 125.126 -4C115.967 5.06152 107.411 14.6984 99.2857 24.7092C87.2554 20.1353 75.0241 16.0792 62.5632 12.7998C59.1465 25.227 56.5624 37.8843 54.4951 50.5992C41.8045 52.6704 29.1713 55.2594 16.7677 58.6827C20.0122 71.1674 24.0893 83.4221 28.6545 95.4753C18.6627 103.616 9.04424 112.189 0 121.365ZM86.7099 131.664C86.6237 129.42 87.2554 127.291 89.1791 125.393C91.9929 122.631 95.6393 122.43 99.3718 122.43C103.133 122.43 106.722 122.574 109.565 125.393C109.593 125.421 109.651 125.479 109.679 125.508C109.679 125.565 109.651 125.594 109.651 125.652C108.588 129.506 105.545 131.405 102.3 133.304C99.0847 135.173 95.8403 136.842 91.9929 135.864C89.3514 135.202 87.7435 133.649 86.7099 131.664ZM86.7099 111.038C87.7435 109.053 89.3514 107.529 91.9641 106.838C95.7828 105.86 99.056 107.5 102.272 109.398C105.516 111.297 108.56 113.196 109.622 117.05C109.622 117.108 109.651 117.137 109.651 117.194C109.622 117.223 109.565 117.28 109.536 117.309C106.693 120.128 103.104 120.243 99.3431 120.272C95.6105 120.272 91.9641 120.1 89.1504 117.309C87.2554 115.411 86.6237 113.282 86.7099 111.038ZM96.9887 93.174C98.8837 91.9945 101.037 91.448 103.65 92.1671C107.469 93.2315 109.45 96.3096 111.287 99.5314C113.154 102.811 114.848 105.975 113.843 109.859C113.843 109.916 113.814 109.945 113.814 110.003C113.756 110.003 113.728 110.031 113.67 110.031C109.794 111.067 106.607 109.37 103.363 107.5C100.147 105.659 97.0749 103.645 96.0125 99.8479C95.2947 97.2301 95.8115 95.0726 96.9887 93.174ZM114.819 82.8755C117.058 82.7892 119.183 83.4221 121.078 85.3494C123.834 88.1686 124.035 91.8219 124.035 95.5616C124.035 99.3301 123.892 102.926 121.078 105.774C121.049 105.803 120.992 105.86 120.963 105.889C120.906 105.889 120.877 105.86 120.82 105.86C116.972 104.796 115.077 101.746 113.182 98.4958C111.316 95.274 109.651 92.0233 110.627 88.1686C111.316 85.522 112.838 83.9111 114.819 82.8755ZM135.405 82.8755C137.386 83.9111 138.908 85.522 139.597 88.1398C140.573 91.9658 138.937 95.2452 137.042 98.4671C135.147 101.718 133.252 104.767 129.404 105.831C129.347 105.831 129.318 105.86 129.261 105.86C129.232 105.831 129.175 105.774 129.146 105.745C126.332 102.897 126.217 99.3013 126.189 95.5328C126.189 91.7932 126.361 88.1398 129.146 85.3207C131.041 83.4221 133.166 82.7892 135.405 82.8755ZM153.235 93.174C154.412 95.0726 154.958 97.2301 154.24 99.8479C153.178 103.674 150.106 105.659 146.89 107.5C143.617 109.37 140.459 111.067 136.582 110.06C136.525 110.06 136.496 110.031 136.439 110.031C136.439 109.974 136.41 109.945 136.41 109.887C135.405 106.004 137.099 102.84 138.965 99.5602C140.803 96.3383 142.813 93.2603 146.603 92.1959C149.187 91.4767 151.34 91.9945 153.235 93.174ZM163.543 111.038C163.629 113.282 162.997 115.411 161.074 117.309C158.26 120.071 154.613 120.272 150.881 120.272C147.12 120.272 143.531 120.128 140.688 117.309C140.66 117.28 140.602 117.223 140.573 117.194C140.573 117.137 140.602 117.108 140.602 117.05C141.664 113.196 144.708 111.297 147.952 109.398C151.168 107.529 154.412 105.86 158.26 106.838C160.901 107.529 162.481 109.053 163.543 111.038ZM163.543 131.664C162.509 133.649 160.901 135.173 158.289 135.864C154.47 136.842 151.197 135.202 147.981 133.304C144.737 131.405 141.693 129.506 140.631 125.652C140.631 125.594 140.602 125.565 140.602 125.508C140.631 125.479 140.688 125.421 140.717 125.393C143.559 122.574 147.148 122.459 150.91 122.43C154.642 122.43 158.289 122.602 161.102 125.393C162.997 127.291 163.6 129.42 163.543 131.664ZM153.235 149.528C151.34 150.707 149.187 151.254 146.574 150.535C142.755 149.47 140.774 146.392 138.937 143.171C137.071 139.891 135.377 136.727 136.381 132.843C136.381 132.786 136.41 132.757 136.41 132.699C136.468 132.699 136.496 132.671 136.554 132.671C140.43 131.664 143.588 133.361 146.861 135.231C150.077 137.072 153.149 139.086 154.212 142.883C154.958 145.472 154.441 147.629 153.235 149.528ZM135.405 159.855C133.166 159.942 131.041 159.309 129.146 157.381C126.39 154.562 126.189 150.909 126.189 147.169C126.189 143.401 126.332 139.805 129.146 136.957C129.175 136.928 129.232 136.871 129.261 136.842C129.318 136.842 129.347 136.871 129.404 136.871C133.252 137.935 135.147 140.984 137.042 144.235C138.908 147.457 140.573 150.707 139.597 154.562C138.937 157.209 137.386 158.791 135.405 159.855ZM114.819 159.855C112.838 158.82 111.316 157.209 110.627 154.591C109.651 150.765 111.287 147.486 113.182 144.264C115.077 141.013 116.972 137.964 120.82 136.899C120.877 136.899 120.906 136.871 120.963 136.871C120.992 136.899 121.049 136.957 121.078 136.986C123.892 139.834 124.007 143.429 124.035 147.198C124.035 150.938 123.863 154.591 121.078 157.41C119.183 159.309 117.058 159.913 114.819 159.855ZM96.9887 149.528C95.8115 147.629 95.266 145.472 95.9838 142.854C97.0462 139.028 100.118 137.043 103.334 135.202C106.607 133.332 109.766 131.635 113.642 132.642C113.699 132.642 113.728 132.671 113.785 132.671C113.785 132.728 113.814 132.757 113.814 132.815C114.819 136.698 113.125 139.862 111.259 143.142C109.421 146.364 107.411 149.442 103.621 150.506C101.037 151.254 98.8837 150.736 96.9887 149.528ZM60.8979 121.365C60.1514 122.861 59.3762 124.357 58.5722 125.767C55.8159 124.357 53.117 122.89 50.4181 121.365C53.0883 119.841 55.8159 118.374 58.5722 116.964C59.3762 118.374 60.1514 119.841 60.8979 121.365ZM69.4827 89.1754C68.1046 90.1247 66.669 90.9877 65.2621 91.822C63.5681 89.2329 61.9602 86.6152 60.4098 83.9399C63.5107 83.9399 66.5828 84.0549 69.655 84.1988C69.655 85.8385 69.5976 87.5069 69.4827 89.1754ZM92.9978 65.6155C91.3325 65.7305 89.6672 65.7881 88.0306 65.7881C87.8584 62.71 87.7722 59.6032 87.7722 56.5252C90.4424 58.0786 93.0552 59.7183 95.6393 61.3868C94.8066 62.8251 93.9453 64.2347 92.9978 65.6155ZM125.126 57.0142C123.633 56.2663 122.14 55.4896 120.733 54.6841C122.14 51.9225 123.605 49.2184 125.126 46.5144C126.648 49.1897 128.112 51.9225 129.519 54.6841C128.084 55.4896 126.619 56.2663 125.126 57.0142ZM157.226 65.6155C156.279 64.2347 155.417 62.7963 154.585 61.3868C157.169 59.6895 159.782 58.0786 162.452 56.5252C162.452 59.632 162.337 62.71 162.193 65.7881C160.586 65.7881 158.92 65.7305 157.226 65.6155ZM180.741 89.1754C180.626 87.5069 180.569 85.8385 180.569 84.1988C183.641 84.0262 186.742 83.9399 189.814 83.9399C188.264 86.6152 186.627 89.2329 184.962 91.822C183.555 90.9877 182.148 90.1247 180.741 89.1754ZM189.355 121.365C190.101 119.869 190.877 118.374 191.681 116.964C194.437 118.374 197.136 119.841 199.835 121.365C197.164 122.89 194.437 124.357 191.681 125.767C190.877 124.328 190.101 122.861 189.355 121.365ZM180.741 153.527C182.119 152.577 183.555 151.714 184.962 150.88C186.656 153.469 188.264 156.087 189.814 158.762C186.713 158.762 183.641 158.647 180.569 158.503C180.569 156.892 180.626 155.224 180.741 153.527ZM157.226 177.087C158.892 176.971 160.557 176.914 162.193 176.914C162.366 179.992 162.452 183.099 162.452 186.177C159.782 184.623 157.169 182.984 154.585 181.315C155.417 179.906 156.307 178.496 157.226 177.087ZM125.126 185.717C126.619 186.464 128.112 187.241 129.519 188.047C128.112 190.808 126.648 193.512 125.126 196.216C123.605 193.541 122.14 190.808 120.733 188.047C122.14 187.241 123.605 186.464 125.126 185.717ZM92.9978 177.087C93.9453 178.467 94.8066 179.906 95.6393 181.315C93.0552 183.012 90.4424 184.623 87.7722 186.177C87.7722 183.07 87.8871 179.992 88.0306 176.914C89.6672 176.914 91.3325 176.971 92.9978 177.087ZM69.4827 153.527C69.5976 155.195 69.655 156.864 69.655 158.503C66.5828 158.676 63.482 158.762 60.4098 158.762C61.9602 156.087 63.5968 153.469 65.2621 150.88C66.6977 151.714 68.1046 152.606 69.4827 153.527ZM43.7569 121.365C48.0063 124.012 52.3992 126.457 56.8495 128.701C55.9882 130.11 55.1555 131.462 54.3803 132.699C53.4902 134.109 52.4566 135.605 51.423 137.13C42.7807 132.699 34.5404 127.435 27.0179 121.365C34.5117 115.296 42.752 110.031 51.423 105.601C52.4566 107.126 53.4902 108.593 54.3803 110.031C55.1555 111.268 55.9882 112.592 56.8495 114.03C52.3705 116.274 48.0063 118.719 43.7569 121.365ZM54.6387 80.6029C56.9931 85.0042 59.5772 89.3192 62.3048 93.5192C60.8405 94.3247 59.4623 95.0726 58.1703 95.7342C56.6772 96.5109 55.0694 97.2876 53.4041 98.0931C48.1211 89.9233 43.6133 81.2358 40.1392 72.2318C49.6716 70.7359 59.4336 70.3044 69.1382 70.7935C69.2818 72.6345 69.4253 74.4181 69.4827 76.0865C69.5402 77.5536 69.5976 79.1358 69.6263 80.7755C64.6591 80.5166 59.6633 80.4303 54.6387 80.6029ZM84.4416 50.7431C84.2981 55.7485 84.3555 60.7827 84.6426 65.7593C82.9773 65.7305 81.3982 65.673 79.9626 65.6155C78.2973 65.5579 76.4884 65.3853 74.6796 65.2703C74.1915 55.5471 74.6222 45.7664 76.1152 36.2159C85.1307 39.6966 93.773 44.213 101.927 49.5061C101.123 51.1458 100.348 52.7855 99.5728 54.2814C98.8837 55.5759 98.1659 56.9855 97.362 58.4238C93.1413 55.7197 88.8346 53.1307 84.4416 50.7431ZM125.126 39.8405C122.485 44.098 120.044 48.4993 117.805 52.9581C116.398 52.0951 115.049 51.2609 113.814 50.4842C112.407 49.5924 110.914 48.5568 109.392 47.5212C113.814 38.8624 119.068 30.6064 125.126 23.0695C131.185 30.5776 136.439 38.8336 140.86 47.5212C139.339 48.5568 137.874 49.5924 136.439 50.4842C135.204 51.2609 133.883 52.0951 132.448 52.9581C130.18 48.4705 127.739 44.098 125.126 39.8405ZM165.811 50.7431C161.418 53.1019 157.111 55.6909 152.919 58.4238C152.116 56.9567 151.369 55.5759 150.709 54.2814C149.933 52.7855 149.158 51.1746 148.354 49.5061C156.508 44.213 165.179 39.6966 174.166 36.2159C175.659 45.7664 176.09 55.5471 175.602 65.2703C173.764 65.4141 171.984 65.5579 170.319 65.6155C168.855 65.673 167.275 65.7305 165.639 65.7593C165.869 60.7827 165.955 55.7772 165.811 50.7431ZM195.585 80.6029C190.589 80.4591 185.565 80.5166 180.598 80.8043C180.626 79.1358 180.684 77.5536 180.741 76.1153C180.799 74.4468 180.971 72.6345 181.086 70.8222C190.79 70.3332 200.552 70.7647 210.085 72.2606C206.611 81.2933 202.103 89.9521 196.82 98.1219C195.183 97.3164 193.547 96.5397 192.054 95.763C190.762 95.0726 189.355 94.3534 187.919 93.548C190.647 89.3192 193.231 85.0042 195.585 80.6029ZM206.496 121.365C202.246 118.719 197.854 116.274 193.403 114.03C194.265 112.592 195.097 111.268 195.872 110.031C196.763 108.622 197.796 107.126 198.83 105.601C207.472 110.031 215.712 115.296 223.235 121.365C215.741 127.435 207.501 132.699 198.83 137.13C197.796 135.605 196.763 134.138 195.872 132.699C195.097 131.462 194.265 130.139 193.403 128.701C197.854 126.428 202.246 123.983 206.496 121.365ZM195.585 162.128C193.231 157.727 190.647 153.411 187.919 149.212C189.384 148.406 190.762 147.658 192.054 146.997C193.547 146.22 195.155 145.443 196.82 144.638C202.103 152.807 206.611 161.495 210.085 170.499C200.552 171.995 190.79 172.426 181.086 171.937C180.942 170.096 180.799 168.313 180.741 166.644C180.684 165.177 180.626 163.595 180.598 161.955C185.594 162.185 190.589 162.272 195.585 162.128ZM165.811 191.959C165.955 186.953 165.897 181.919 165.61 176.943C167.275 176.971 168.855 177.029 170.29 177.087C171.955 177.144 173.764 177.317 175.573 177.432C176.061 187.155 175.631 196.936 174.138 206.486C165.122 203.005 156.48 198.489 148.326 193.196C149.13 191.556 149.905 189.916 150.68 188.421C151.369 187.126 152.087 185.745 152.891 184.278C157.111 187.011 161.389 189.6 165.811 191.959ZM125.126 202.89C127.768 198.633 130.208 194.231 132.448 189.773C133.855 190.636 135.204 191.47 136.439 192.247C137.846 193.138 139.339 194.174 140.86 195.21C136.439 203.868 131.185 212.124 125.126 219.661C119.068 212.153 113.814 203.897 109.392 195.21C110.914 194.174 112.378 193.138 113.814 192.247C115.049 191.47 116.369 190.636 117.805 189.773C120.044 194.231 122.485 198.633 125.126 202.89ZM84.4416 191.959C88.8346 189.6 93.1413 187.011 97.3333 184.278C98.1372 185.745 98.8837 187.126 99.5441 188.421C100.319 189.916 101.095 191.527 101.898 193.196C93.7443 198.489 85.0733 203.005 76.0865 206.486C74.5935 196.936 74.1628 187.155 74.6509 177.432C76.4884 177.288 78.2686 177.144 79.9339 177.087C81.3982 177.029 82.9773 176.971 84.6139 176.943C84.3555 181.948 84.2694 186.953 84.4416 191.959ZM54.6387 162.128C59.6346 162.272 64.6591 162.214 69.6263 161.926C69.5976 163.595 69.5402 165.177 69.4827 166.615C69.4253 168.284 69.2531 170.096 69.1382 171.908C59.4336 172.398 49.6716 171.966 40.1392 170.47C43.6133 161.437 48.1211 152.779 53.4041 144.609C55.0407 145.414 56.6772 146.191 58.1703 146.968C59.4623 147.658 60.8692 148.377 62.3048 149.183C59.6059 153.411 57.0218 157.698 54.6387 162.128ZM73.5885 121.365C72.8133 123.465 72.2965 125.709 71.9807 128.01C71.6648 130.398 71.8658 133.102 71.7797 135.662C73.1292 137.849 74.3063 140.294 75.7706 142.192C77.1775 144.034 78.7567 145.702 80.4794 147.14C80.8527 149.355 81.5417 151.542 82.4031 153.699C83.3219 155.914 84.8436 158.158 86.0495 160.431C88.3177 161.639 90.5573 163.192 92.7681 164.084C94.8928 164.976 97.1036 165.637 99.3144 166.011C100.75 167.737 102.444 169.319 104.253 170.729C106.148 172.196 108.588 173.376 110.77 174.728C113.355 174.641 116.053 174.843 118.408 174.526C120.705 174.21 122.944 173.692 125.04 172.915C127.136 173.692 129.376 174.21 131.673 174.526C134.056 174.843 136.755 174.641 139.31 174.728C141.492 173.376 143.933 172.196 145.828 170.729C147.665 169.319 149.33 167.737 150.766 166.011C152.977 165.637 155.159 164.947 157.312 164.084C159.523 163.163 161.763 161.639 164.031 160.431C165.237 158.158 166.787 155.914 167.677 153.699C168.567 151.57 169.228 149.355 169.601 147.14C171.324 145.702 172.903 144.034 174.31 142.192C175.774 140.294 176.951 137.849 178.301 135.662C178.215 133.073 178.416 130.369 178.1 128.01C177.784 125.709 177.267 123.465 176.492 121.365C177.267 119.265 177.784 117.022 178.1 114.72C178.416 112.333 178.215 109.629 178.301 107.068C176.951 104.882 175.774 102.437 174.31 100.538C172.903 98.6972 171.324 97.0287 169.601 95.5904C169.228 93.3753 168.539 91.1891 167.677 89.0316C166.759 86.8165 165.237 84.5727 164.031 82.3002C161.763 81.092 159.523 79.5386 157.312 78.6468C155.188 77.755 152.977 77.0934 150.766 76.7194C149.33 74.9934 147.665 73.4112 145.828 72.0017C143.933 70.5346 141.492 69.3551 139.31 68.0031C136.726 68.0894 134.027 67.888 131.673 68.2045C129.376 68.5209 127.136 69.0387 125.04 69.8154C122.944 69.0387 120.705 68.5209 118.408 68.2045C116.025 67.888 113.326 68.0894 110.77 68.0031C108.588 69.3551 106.148 70.5346 104.253 72.0017C102.415 73.4112 100.75 74.9934 99.3144 76.7194C97.1036 77.0934 94.9215 77.7838 92.7681 78.6468C90.5573 79.5673 88.3177 81.092 86.0495 82.3002C84.8436 84.5727 83.2932 86.8165 82.4031 89.0316C81.513 91.1603 80.8527 93.3753 80.4794 95.5904C78.7567 97.0287 77.1775 98.6972 75.7706 100.538C74.3063 102.437 73.1292 104.882 71.7797 107.068C71.8658 109.657 71.6648 112.361 71.9807 114.72C72.3252 117.022 72.8133 119.237 73.5885 121.365ZM56.4763 139.776C59.3475 135.461 62.0177 131.031 64.4007 126.428C65.2621 124.76 66.066 123.063 66.8125 121.365C66.066 119.668 65.2621 117.971 64.4007 116.302C62.0464 111.7 59.3475 107.27 56.4763 102.955C61.0989 100.653 65.6354 98.1506 69.9996 95.3603C71.5787 94.3534 73.1292 93.289 74.6222 92.1671C74.8232 90.2973 74.9667 88.4275 75.0528 86.5576C75.3113 81.3796 75.1964 76.2016 74.8519 71.0236C80.02 71.34 85.1881 71.4551 90.3563 71.225C92.2226 71.1387 94.0888 70.9948 95.9551 70.7935C97.0462 69.2976 98.1085 67.7442 99.1421 66.162C101.956 61.8183 104.425 57.2443 106.722 52.6129C111.029 55.4896 115.45 58.1649 120.044 60.5525C121.71 61.4155 123.404 62.221 125.098 62.9689C126.792 62.221 128.486 61.4155 130.151 60.5525C134.745 58.1936 139.166 55.4896 143.473 52.6129C145.77 57.2443 148.268 61.7895 151.053 66.162C152.058 67.7442 153.12 69.2976 154.24 70.7935C156.106 70.9948 157.973 71.1387 159.839 71.225C165.007 71.4839 170.175 71.3688 175.343 71.0236C175.028 76.2016 174.913 81.3796 175.142 86.5576C175.229 88.4275 175.372 90.2973 175.573 92.1671C177.066 93.2603 178.617 94.3247 180.196 95.3603C184.531 98.1794 189.096 100.653 193.719 102.955C190.848 107.27 188.178 111.7 185.795 116.302C184.933 117.971 184.129 119.668 183.383 121.365C184.129 123.063 184.933 124.76 185.795 126.428C188.149 131.031 190.848 135.461 193.719 139.776C189.096 142.077 184.56 144.58 180.196 147.37C178.617 148.377 177.066 149.442 175.573 150.564C175.372 152.433 175.229 154.303 175.142 156.173C174.884 161.351 174.999 166.529 175.343 171.707C170.175 171.391 165.007 171.276 159.839 171.506C157.973 171.592 156.106 171.736 154.24 171.937C153.149 173.433 152.087 174.987 151.053 176.569C148.239 180.912 145.77 185.486 143.473 190.118C139.166 187.241 134.745 184.566 130.151 182.178C128.486 181.315 126.792 180.51 125.098 179.762C123.404 180.51 121.71 181.315 120.044 182.178C115.45 184.537 111.029 187.241 106.722 190.118C104.425 185.486 101.927 180.941 99.1421 176.569C98.1372 174.987 97.0749 173.433 95.9551 171.937C94.0888 171.736 92.2226 171.592 90.3563 171.506C85.1881 171.247 80.02 171.362 74.8519 171.707C75.1677 166.529 75.2825 161.351 75.0528 156.173C74.9667 154.303 74.8232 152.433 74.6222 150.564C73.1292 149.47 71.5787 148.406 69.9996 147.37C65.6641 144.58 61.0989 142.077 56.4763 139.776ZM113.297 124.53C113.154 124.328 112.981 124.127 112.838 123.926C111.948 122.861 110.971 121.998 109.938 121.365C110.971 120.704 111.948 119.869 112.838 118.805C113.01 118.604 113.154 118.402 113.297 118.201C113.268 117.942 113.24 117.712 113.182 117.453C112.953 116.072 112.522 114.864 111.948 113.771C113.182 113.713 114.446 113.483 115.738 112.994C115.967 112.908 116.226 112.822 116.455 112.707C116.542 112.476 116.656 112.246 116.743 111.987C117.231 110.664 117.46 109.398 117.518 108.19C118.609 108.766 119.815 109.197 121.193 109.427C121.451 109.485 121.71 109.513 121.939 109.542C122.14 109.398 122.341 109.226 122.542 109.082C123.605 108.19 124.466 107.212 125.098 106.177C125.758 107.212 126.591 108.19 127.653 109.082C127.854 109.255 128.055 109.398 128.256 109.542C128.514 109.513 128.744 109.485 129.002 109.427C130.381 109.197 131.587 108.766 132.678 108.19C132.735 109.427 132.965 110.693 133.453 111.987C133.539 112.218 133.625 112.476 133.74 112.707C133.97 112.793 134.199 112.908 134.458 112.994C135.778 113.483 137.042 113.713 138.248 113.771C137.673 114.864 137.243 116.072 137.013 117.453C136.956 117.712 136.927 117.971 136.898 118.201C137.042 118.402 137.214 118.604 137.358 118.805C138.248 119.869 139.224 120.733 140.258 121.365C139.224 122.027 138.248 122.861 137.358 123.926C137.185 124.127 137.042 124.328 136.898 124.53C136.927 124.789 136.956 125.019 137.013 125.278C137.243 126.658 137.673 127.867 138.248 128.96C137.013 129.017 135.75 129.247 134.458 129.736C134.228 129.823 133.97 129.909 133.74 130.024C133.654 130.254 133.539 130.484 133.453 130.743C132.965 132.067 132.735 133.332 132.678 134.541C131.587 133.965 130.381 133.534 129.002 133.304C128.744 133.246 128.486 133.217 128.256 133.188C128.055 133.332 127.854 133.505 127.653 133.649C126.591 134.541 125.729 135.519 125.098 136.554C124.437 135.519 123.605 134.541 122.542 133.649C122.341 133.476 122.14 133.332 121.939 133.188C121.681 133.217 121.451 133.246 121.193 133.304C119.815 133.534 118.609 133.965 117.518 134.541C117.46 133.304 117.231 132.038 116.743 130.743C116.656 130.513 116.57 130.254 116.455 130.024C116.226 129.938 115.996 129.823 115.738 129.736C114.417 129.247 113.154 129.017 111.948 128.96C112.522 127.867 112.953 126.658 113.182 125.278C113.24 125.048 113.268 124.789 113.297 124.53ZM89.4949 121.365C85.5614 123.638 83.2645 127.464 83.4941 132.556C85.8198 137.072 89.7246 139.23 94.2611 139.23C91.9929 143.171 91.9067 147.629 94.6344 151.916C98.8837 154.648 103.363 154.562 107.296 152.29C107.296 156.835 109.45 160.747 113.957 163.077C119.011 163.307 122.858 161.006 125.098 157.065C127.366 161.006 131.185 163.307 136.267 163.077C140.774 160.747 142.928 156.835 142.928 152.29C146.861 154.562 151.312 154.648 155.59 151.916C158.317 147.658 158.231 143.171 155.963 139.23C160.499 139.23 164.404 137.072 166.73 132.556C166.96 127.493 164.663 123.638 160.729 121.365C164.663 119.093 166.96 115.267 166.73 110.175C164.404 105.659 160.499 103.501 155.963 103.501C158.231 99.5602 158.317 95.1013 155.59 90.8151C151.34 88.0823 146.861 88.1686 142.928 90.4411C142.928 85.896 140.774 81.9837 136.267 79.6536C131.213 79.4235 127.366 81.7248 125.098 85.6659C122.829 81.7248 119.011 79.4235 113.957 79.6536C109.45 81.9837 107.296 85.896 107.296 90.4411C103.363 88.1686 98.9124 88.0823 94.6344 90.8151C91.9067 95.0726 91.9929 99.5602 94.2611 103.501C89.7246 103.501 85.8198 105.659 83.4941 110.175C83.2645 115.238 85.5614 119.093 89.4949 121.365ZM76.3162 134.454C75.3974 129.909 75.3974 125.479 77.3498 121.365C75.3974 117.252 75.3974 112.822 76.3162 108.277C77.7805 103.875 79.9913 100.049 83.7525 97.4314C84.1258 92.8863 86.3366 89.0603 89.4088 85.5796C92.8829 82.5015 96.7016 80.2865 101.238 79.9125C103.822 76.1441 107.67 73.9578 112.062 72.4619C116.599 71.5414 121.021 71.5414 125.126 73.4975C129.232 71.5414 133.654 71.5414 138.19 72.4619C142.583 73.929 146.402 76.1441 149.015 79.9125C153.551 80.2865 157.37 82.5015 160.844 85.5796C163.916 89.0603 166.127 92.8863 166.5 97.4314C170.261 100.02 172.444 103.875 173.937 108.277C174.855 112.822 174.855 117.252 172.903 121.365C174.855 125.479 174.855 129.909 173.937 134.454C172.472 138.856 170.261 142.682 166.5 145.299C166.127 149.844 163.916 153.67 160.844 157.151C157.37 160.229 153.551 162.444 149.015 162.818C146.431 166.587 142.583 168.773 138.19 170.269C133.654 171.189 129.232 171.189 125.126 169.233C121.021 171.189 116.599 171.189 112.062 170.269C107.67 168.802 103.851 166.587 101.238 162.818C96.7016 162.444 92.8829 160.229 89.4088 157.151C86.3366 153.67 84.1258 149.844 83.7525 145.299C79.9913 142.71 77.7805 138.856 76.3162 134.454ZM121.394 121.365C121.537 121.653 121.652 121.969 121.796 122.257C121.853 122.574 121.882 122.89 121.911 123.235C122.169 123.408 122.456 123.609 122.686 123.811C122.887 124.069 123.088 124.328 123.26 124.587C123.576 124.616 123.92 124.645 124.236 124.702C124.523 124.817 124.839 124.961 125.126 125.105C125.413 124.961 125.729 124.846 126.016 124.702C126.332 124.645 126.648 124.616 126.993 124.587C127.165 124.328 127.366 124.041 127.567 123.811C127.825 123.609 128.084 123.408 128.342 123.235C128.371 122.919 128.4 122.574 128.457 122.257C128.572 121.969 128.715 121.653 128.859 121.365C128.715 121.078 128.601 120.761 128.457 120.474C128.4 120.157 128.371 119.841 128.342 119.496C128.084 119.323 127.797 119.122 127.567 118.92C127.366 118.661 127.165 118.402 126.993 118.143C126.677 118.115 126.332 118.086 126.016 118.028C125.729 117.913 125.413 117.77 125.126 117.626C124.839 117.77 124.523 117.885 124.236 118.028C123.92 118.086 123.605 118.115 123.26 118.143C123.088 118.402 122.887 118.69 122.686 118.92C122.427 119.122 122.169 119.323 121.911 119.496C121.882 119.812 121.853 120.157 121.796 120.474C121.652 120.761 121.537 121.049 121.394 121.365ZM21.7062 121.365C30.1475 128.672 39.565 134.857 49.528 140.006C49.126 140.668 48.7241 141.329 48.3508 141.991C49.0112 142.365 49.6716 142.739 50.3606 143.113C44.3024 152.548 39.2204 162.646 35.574 173.203C46.5132 175.303 57.7683 175.936 68.9659 175.389C68.9372 176.166 68.9372 176.914 68.9372 177.691C69.6837 177.691 70.459 177.691 71.2342 177.662C70.6886 188.881 71.349 200.157 73.4163 211.118C83.9535 207.464 94.0314 202.372 103.449 196.303C103.822 196.993 104.167 197.655 104.569 198.316C105.229 197.942 105.889 197.54 106.55 197.137C111.66 207.119 117.862 216.554 125.155 225.012C132.448 216.554 138.621 207.119 143.76 197.137C144.421 197.54 145.081 197.942 145.742 198.316C146.115 197.655 146.488 196.993 146.861 196.303C156.279 202.372 166.357 207.464 176.894 211.118C178.99 200.157 179.622 188.881 179.076 177.662C179.851 177.691 180.598 177.691 181.373 177.691C181.373 176.943 181.373 176.166 181.344 175.389C192.542 175.936 203.797 175.274 214.736 173.203C211.09 162.646 206.008 152.548 199.95 143.113C200.639 142.739 201.299 142.394 201.959 141.991C201.586 141.329 201.184 140.668 200.782 140.006C210.745 134.886 220.191 128.672 228.604 121.365C220.163 114.059 210.745 107.874 200.782 102.725C201.184 102.063 201.586 101.401 201.959 100.74C201.299 100.366 200.639 99.9917 199.95 99.6177C206.008 90.1822 211.09 80.0851 214.736 69.5277C203.797 67.4278 192.542 66.7949 181.344 67.3415C181.373 66.5648 181.373 65.8168 181.373 65.0401C180.626 65.0401 179.851 65.0401 179.076 65.0689C179.622 53.8499 178.961 42.5733 176.894 31.6132C166.357 35.2666 156.279 40.3583 146.861 46.4281C146.488 45.7377 146.143 45.076 145.742 44.4144C145.081 44.7884 144.421 45.1911 143.76 45.5938C138.65 35.6118 132.448 26.1763 125.155 17.7189C117.862 26.1763 111.689 35.6118 106.55 45.5938C105.889 45.1911 105.229 44.7884 104.569 44.4144C104.195 45.076 103.822 45.7377 103.449 46.4281C94.0314 40.3583 83.9535 35.2666 73.4163 31.6132C71.3203 42.5733 70.6886 53.8499 71.2342 65.0689C70.459 65.0401 69.7124 65.0401 68.9372 65.0401C68.9372 65.7881 68.9372 66.5648 68.9659 67.3415C57.7683 66.7949 46.5132 67.4565 35.574 69.5277C39.2204 80.0851 44.3024 90.1822 50.3606 99.6177C49.6716 99.9917 49.0112 100.337 48.3508 100.74C48.7241 101.401 49.126 102.063 49.528 102.725C39.565 107.845 30.1475 114.059 21.7062 121.365ZM37.9284 144.753C28.8841 137.302 20.0696 129.564 11.7144 121.337C20.0696 113.109 28.8841 105.371 37.9284 97.9205C33.7939 86.9316 30.0326 75.8276 26.903 64.5223C38.2442 61.5881 49.729 59.2868 61.2999 57.3882C63.1948 45.824 65.4918 34.2885 68.4204 22.9256C79.7042 26.0612 90.8157 29.8297 101.755 33.9721C109.191 24.9106 116.915 16.0792 125.126 7.70806C133.338 16.0792 141.061 24.9106 148.498 33.9721C159.466 29.8297 170.549 26.0612 181.832 22.9256C184.761 34.2885 187.058 45.7952 188.953 57.3882C200.495 59.2868 212.009 61.5881 223.35 64.5223C220.22 75.8276 216.459 86.9604 212.324 97.9205C221.369 105.371 230.183 113.109 238.538 121.337C230.183 129.564 221.369 137.302 212.324 144.753C216.459 155.742 220.22 166.846 223.35 178.151C212.009 181.085 200.524 183.386 188.953 185.285C187.058 196.849 184.761 208.385 181.832 219.748C170.549 216.612 159.437 212.844 148.498 208.701C141.061 217.763 133.338 226.594 125.126 234.965C116.915 226.594 109.191 217.763 101.755 208.701C90.787 212.844 79.7042 216.612 68.4204 219.748C65.4918 208.385 63.1948 196.878 61.2999 185.285C49.7577 183.386 38.2442 181.085 26.903 178.151C30.0613 166.846 33.8226 155.742 37.9284 144.753Z" fill="url(#paint0_linear_1_1625)"/>
<defs>
<linearGradient id="paint0_linear_1_1625" x1="234.485" y1="-31.9867" x2="-0.378667" y2="168.829" gradientUnits="userSpaceOnUse">
<stop stop-color="#232323"/>
<stop offset="1" stop-color="#232323" stop-opacity="0"/>
</linearGradient>
</defs>
</svg>
